<?xml version="1.0" encoding="utf-8"?>
<!-- Generator: Adobe Illustrator 27.2.0, SVG Export Plug-In . SVG Version: 6.00 Build 0)  -->
<svg version="1.1" id="Layer_1" xmlns="http://www.w3.org/2000/svg" xmlns:xlink="http://www.w3.org/1999/xlink" x="0px" y="0px"
	 viewBox="0 0 64 80" style="enable-background:new 0 0 64 80;" xml:space="preserve">
<style type="text/css">
	.st0{display:none;}
	.st1{display:inline;}
</style>
<g>
	<path d="M32,2.8c11.7,0,21.2,9.5,21.2,21.2v37.2H10.8V24C10.8,12.3,20.3,2.8,32,2.8 M32,0C18.7,0,8,10.7,8,24v40h48V24
		C56,10.7,45.3,0,32,0L32,0z"/>
</g>
<g>
	<path d="M61.2,70.8v6.5H2.8v-6.5H61.2 M64,68H0v12h64V68L64,68z"/>
</g>
<g class="st0">
	<path class="st1" d="M38,20.1c4.7,0,7.9,3.9,7.4,8.1c2.6,2.2,3.4,4.8,1.9,8c-1.1,2.3-3.6,3.6-6,3.3c-2.1-0.2-4.7-1.5-5.5-5.1
		c-0.4-0.1-0.7-0.1-1.1-0.2c-1.1-0.2-2-0.8-2.6-1.7c-0.4-0.5-0.4-1,0-1.5c0.4-0.5,1.1-0.6,1.7-0.2c0.2,0.1,0.3,0.3,0.4,0.5
		c0.7,0.7,1.6,0.8,2.5,0.5c0.9-0.4,1.3-1.1,1.4-2.1c0-0.2,0-0.4,0-0.6c0-0.7,0.5-1.2,1.1-1.2c0.6,0,1.2,0.4,1.2,1.1
		c0.2,1.1,0,2.1-0.6,3.1c-0.3,0.6-0.8,1-1.3,1.4c-0.1,0.1-0.2,0.1-0.2,0.2c0.2,1.7,1.3,3,2.9,3.4c1.7,0.4,3.3-0.4,4.2-1.8
		c0.9-1.6,0.5-3.5-0.6-4.5c-0.1,0.2-0.2,0.3-0.3,0.5c-0.4,0.5-1,0.6-1.5,0.3c-0.5-0.3-0.7-0.9-0.4-1.5c0.1-0.2,0.2-0.3,0.2-0.5
		c0.8-1.7,0.8-3.4-0.3-4.9c-1.1-1.6-2.6-2.3-4.5-2.1c-0.9,0.1-1.2-0.1-1.6-0.9c-0.9-1.7-2.3-2.8-4.2-3.2c-3-0.6-6.1,1.4-6.6,4.4
		c-0.1,0.6-0.1,1.3-0.1,2c0,0.5-0.1,0.9-0.6,1.1c-0.7,0.4-1.6,0-1.8-0.9c0-0.3,0-0.6-0.1-0.9c-2.1-0.2-4.3,2-4.5,4.4
		c-0.2,3,2.3,5.2,4.6,5.2c0.1-0.2,0.1-0.4,0.2-0.6c0.7-1.9,2.6-3.2,4.5-3.2c0.2,0,0.4,0,0.6,0.1c0.5,0.2,0.8,0.7,0.8,1.2
		c0,0.5-0.4,1-1,1c-0.3,0-0.6,0.1-0.9,0.1c-1.3,0.3-2.1,1.5-2,2.9c0.1,1.3,1.2,2.3,2.5,2.4c0.8,0,1.6,0,2.4,0c1,0,1.9,0.1,2.7,0.6
		c1.7,0.9,2.7,2.4,2.8,4.3c0.1,1.2,0,2.4,0,3.6c0,0.2,0,0.4-0.1,0.6c-0.2,0.4-0.6,0.7-1.1,0.7c-0.5,0-0.9-0.2-1-0.7
		c-0.1-0.2-0.1-0.5-0.1-0.8c0-1,0-2,0-3c0-1.5-1.2-2.9-2.9-2.9c-0.7,0-1.5,0-2.2,0c-2.8,0-4.6-1.8-5.2-3.7c0-0.1-0.1-0.1-0.1-0.2
		c-4.7-0.4-7-4.1-7-7.3c0.1-3.4,2.6-6.9,7.1-7.1C25.2,15.1,34.1,13.8,38,20.1z"/>
	<path class="st1" d="M33.5,27.6c0.1-1-0.4-1.8-1.3-2.2c-0.9-0.4-1.7-0.3-2.5,0.3c-0.2,0.2-0.3,0.4-0.5,0.6
		c-0.3,0.3-0.7,0.4-1.2,0.3c-0.4-0.1-0.7-0.5-0.8-0.9c-0.1-0.4,0.1-0.7,0.3-1c0.7-0.9,1.6-1.5,2.7-1.8c2.5-0.6,4.9,0.9,5.5,3.4
		c0.1,0.6,0.2,1.1,0.1,1.7c-0.1,0.7-0.6,1.1-1.3,1.1c-0.6,0-1-0.5-1.1-1.2C33.5,27.7,33.5,27.6,33.5,27.6z"/>
</g>
<path d="M15.3,45.3V22.1c0-0.4,0.2-0.8,0.5-1.2c0.3-0.4,0.7-0.5,1.1-0.5h21.6c0.4,0,0.8,0.2,1.2,0.5c0.3,0.4,0.5,0.8,0.5,1.2V37
	c0,0.4-0.2,0.8-0.5,1.2c-0.3,0.4-0.7,0.5-1.2,0.5H22L15.3,45.3z M23.7,47c-0.4,0-0.8-0.2-1.2-0.5c-0.4-0.4-0.5-0.8-0.5-1.2v-3.8
	h21.1V27H47c0.4,0,0.8,0.2,1.1,0.5c0.3,0.4,0.5,0.8,0.5,1.2v24.9L42,47H23.7z M37.6,23.1H18.1v15.5l2.7-2.7h16.7
	C37.6,35.9,37.6,23.1,37.6,23.1z M18.1,23.1v15.5C18.1,38.6,18.1,23.1,18.1,23.1z"/>
</svg>
